M48
; DRILL file {KiCad 9.0.1+dfsg-1} date 2025-05-19T03:39:23+0530
; FORMAT={3:3/ absolute / metric / suppress leading zeros}
; #@! TF.CreationDate,2025-05-19T03:39:23+05:30
; #@! TF.GenerationSoftware,Kicad,Pcbnew,9.0.1+dfsg-1
; #@! TF.FileFunction,Plated,1,2,PTH
FMAT,2
METRIC,TZ
; #@! TA.AperFunction,Plated,PTH,ViaDrill
T1C0.300
; #@! TA.AperFunction,Plated,PTH,ComponentDrill
T2C0.750
; #@! TA.AperFunction,Plated,PTH,ComponentDrill
T3C0.800
; #@! TA.AperFunction,Plated,PTH,ComponentDrill
T4C0.900
; #@! TA.AperFunction,Plated,PTH,ComponentDrill
T5C1.100
; #@! TA.AperFunction,Plated,PTH,ComponentDrill
T6C1.520
; #@! TA.AperFunction,Plated,PTH,ComponentDrill
T7C1.780
%
G90
G05
T1
X114718Y-77976
X126165Y-91885
X131484Y-66379
X132447Y-100973
X136091Y-70338
X141593Y-116014
X142448Y-106607
T2
X106560Y-114930
X107830Y-114930
X109100Y-114930
T3
X106200Y-71450
X106200Y-73990
X106200Y-76530
X106200Y-79070
X106200Y-81610
X106200Y-84150
X106200Y-86690
X106200Y-89230
X106200Y-91770
X106200Y-94310
X106200Y-96850
X106200Y-99390
X106200Y-101930
X106200Y-104470
X106200Y-107010
X106200Y-109550
X113820Y-71450
X113820Y-73990
X113820Y-76530
X113820Y-79070
X113820Y-81610
X113820Y-84150
X113820Y-86690
X113820Y-89230
X113820Y-91770
X113820Y-94310
X113820Y-96850
X113820Y-99390
X113820Y-101930
X113820Y-104470
X113820Y-107010
X113820Y-109550
X134530Y-100300
X134530Y-104350
X134530Y-108400
X134530Y-112450
X142150Y-100300
X142150Y-104350
X142150Y-108400
X142150Y-112450
X146750Y-109300
X154250Y-113700
T4
X142000Y-76225
X142000Y-78765
T5
X145600Y-100400
X155760Y-100400
T6
X151990Y-73850
X151990Y-82900
X151990Y-91950
X157070Y-73850
X157070Y-82900
X157070Y-91950
T7
X119220Y-100720
X119220Y-104120
X119220Y-109010
X119220Y-112410
X129140Y-100720
X129140Y-104120
X129140Y-109010
X129140Y-112410
M30
