%TF.GenerationSoftware,KiCad,Pcbnew,9.0.1+dfsg-1*%
%TF.CreationDate,2025-05-19T03:38:21+05:30*%
%TF.ProjectId,SmartHeaterControl,536d6172-7448-4656-9174-6572436f6e74,rev?*%
%TF.SameCoordinates,Original*%
%TF.FileFunction,Copper,L1,Top*%
%TF.FilePolarity,Positive*%
%FSLAX46Y46*%
G04 Gerber Fmt 4.6, Leading zero omitted, Abs format (unit mm)*
G04 Created by KiCad (PCBNEW 9.0.1+dfsg-1) date 2025-05-19 03:38:21*
%MOMM*%
%LPD*%
G01*
G04 APERTURE LIST*
%TA.AperFunction,ComponentPad*%
%ADD10R,3.000000X3.000000*%
%TD*%
%TA.AperFunction,ComponentPad*%
%ADD11C,3.000000*%
%TD*%
%TA.AperFunction,ComponentPad*%
%ADD12C,2.780000*%
%TD*%
%TA.AperFunction,ComponentPad*%
%ADD13C,1.800000*%
%TD*%
%TA.AperFunction,ComponentPad*%
%ADD14R,1.050000X1.500000*%
%TD*%
%TA.AperFunction,ComponentPad*%
%ADD15O,1.050000X1.500000*%
%TD*%
%TA.AperFunction,ComponentPad*%
%ADD16C,1.600000*%
%TD*%
%TA.AperFunction,ComponentPad*%
%ADD17O,1.600000X1.600000*%
%TD*%
%TA.AperFunction,SMDPad,CuDef*%
%ADD18R,0.700000X2.500000*%
%TD*%
%TA.AperFunction,SMDPad,CuDef*%
%ADD19R,0.900000X2.000000*%
%TD*%
%TA.AperFunction,SMDPad,CuDef*%
%ADD20R,0.700000X2.000000*%
%TD*%
%TA.AperFunction,ComponentPad*%
%ADD21R,1.600000X1.600000*%
%TD*%
%TA.AperFunction,ComponentPad*%
%ADD22R,1.800000X1.800000*%
%TD*%
%TA.AperFunction,ComponentPad*%
%ADD23R,2.200000X2.200000*%
%TD*%
%TA.AperFunction,ComponentPad*%
%ADD24O,2.200000X2.200000*%
%TD*%
%TA.AperFunction,ViaPad*%
%ADD25C,0.600000*%
%TD*%
%TA.AperFunction,Conductor*%
%ADD26C,0.200000*%
%TD*%
G04 APERTURE END LIST*
D10*
%TO.P,J1,1,Pin_1*%
%TO.N,Net-(J1-Pin_1)*%
X151990000Y-73850000D03*
D11*
%TO.P,J1,2,Pin_2*%
%TO.N,GND*%
X157070000Y-73850000D03*
%TD*%
D12*
%TO.P,F1,1*%
%TO.N,Net-(F1-Pad1)*%
X119220000Y-100720000D03*
X119220000Y-104120000D03*
%TO.P,F1,2*%
%TO.N,Net-(J1-Pin_1)*%
X129140000Y-100720000D03*
X129140000Y-104120000D03*
%TD*%
%TO.P,F2,1*%
%TO.N,Net-(J1-Pin_1)*%
X119220000Y-109010000D03*
X119220000Y-112410000D03*
%TO.P,F2,2*%
%TO.N,GND*%
X129140000Y-109010000D03*
X129140000Y-112410000D03*
%TD*%
D13*
%TO.P,RV1,1*%
%TO.N,GND*%
X146750000Y-109300000D03*
%TO.P,RV1,2*%
%TO.N,Net-(J1-Pin_1)*%
X154250000Y-113700000D03*
%TD*%
D14*
%TO.P,Q1,1,B*%
%TO.N,Net-(Q1-B)*%
X106560000Y-114930000D03*
D15*
%TO.P,Q1,2,C*%
%TO.N,Net-(D1-K)*%
X107830000Y-114930000D03*
%TO.P,Q1,3,E*%
%TO.N,GND*%
X109100000Y-114930000D03*
%TD*%
D16*
%TO.P,R2,1*%
%TO.N,Net-(U1-PD2)*%
X134530000Y-104350000D03*
D17*
%TO.P,R2,2*%
%TO.N,Net-(Q1-B)*%
X142150000Y-104350000D03*
%TD*%
D18*
%TO.P,K1,1*%
%TO.N,N/C*%
X143760000Y-64185000D03*
D19*
%TO.P,K1,2*%
X142490000Y-63935000D03*
D20*
%TO.P,K1,5*%
X138680000Y-63935000D03*
D19*
%TO.P,K1,6*%
X137410000Y-63935000D03*
D20*
%TO.P,K1,7*%
X136140000Y-63935000D03*
D19*
%TO.P,K1,10*%
X132330000Y-63935000D03*
D18*
%TO.P,K1,11*%
%TO.N,Net-(F1-Pad1)*%
X131060000Y-64185000D03*
%TO.P,K1,12*%
%TO.N,Net-(J1-Pin_1)*%
X131060000Y-71685000D03*
D20*
%TO.P,K1,13*%
%TO.N,N/C*%
X132330000Y-71935000D03*
D19*
%TO.P,K1,14*%
%TO.N,unconnected-(K1-Pad14)*%
X133600000Y-71935000D03*
D20*
%TO.P,K1,15*%
%TO.N,N/C*%
X134870000Y-71935000D03*
D19*
%TO.P,K1,17*%
X137410000Y-71935000D03*
D20*
%TO.P,K1,19*%
X139950000Y-71935000D03*
D19*
%TO.P,K1,20*%
X141220000Y-71935000D03*
D20*
%TO.P,K1,21*%
X142490000Y-71935000D03*
D18*
%TO.P,K1,22*%
X143760000Y-71685000D03*
%TD*%
D21*
%TO.P,U1,1,PD3*%
%TO.N,Net-(U1-PD3)*%
X106200000Y-71450000D03*
D17*
%TO.P,U1,2,PD4*%
%TO.N,unconnected-(U1-PD4-Pad2)*%
X106200000Y-73990000D03*
%TO.P,U1,3,GND*%
%TO.N,GND*%
X106200000Y-76530000D03*
%TO.P,U1,4,VCC*%
%TO.N,+5V*%
X106200000Y-79070000D03*
%TO.P,U1,5,GND*%
%TO.N,GND*%
X106200000Y-81610000D03*
%TO.P,U1,6,VCC*%
%TO.N,+5V*%
X106200000Y-84150000D03*
%TO.P,U1,7,XTAL1/PB6*%
%TO.N,unconnected-(U1-XTAL1{slash}PB6-Pad7)*%
X106200000Y-86690000D03*
%TO.P,U1,8,XTAL2/PB7*%
%TO.N,unconnected-(U1-XTAL2{slash}PB7-Pad8)*%
X106200000Y-89230000D03*
%TO.P,U1,9,PD5*%
%TO.N,unconnected-(U1-PD5-Pad9)*%
X106200000Y-91770000D03*
%TO.P,U1,10,PD6*%
%TO.N,unconnected-(U1-PD6-Pad10)*%
X106200000Y-94310000D03*
%TO.P,U1,11,PD7*%
%TO.N,unconnected-(U1-PD7-Pad11)*%
X106200000Y-96850000D03*
%TO.P,U1,12,PB0*%
%TO.N,unconnected-(U1-PB0-Pad12)*%
X106200000Y-99390000D03*
%TO.P,U1,13,PB1*%
%TO.N,unconnected-(U1-PB1-Pad13)*%
X106200000Y-101930000D03*
%TO.P,U1,14,PB2*%
%TO.N,unconnected-(U1-PB2-Pad14)*%
X106200000Y-104470000D03*
%TO.P,U1,15,PB3*%
%TO.N,unconnected-(U1-PB3-Pad15)*%
X106200000Y-107010000D03*
%TO.P,U1,16,PB4*%
%TO.N,unconnected-(U1-PB4-Pad16)*%
X106200000Y-109550000D03*
%TO.P,U1,17,PB5*%
%TO.N,unconnected-(U1-PB5-Pad17)*%
X113820000Y-109550000D03*
%TO.P,U1,18,AVCC*%
%TO.N,+5V*%
X113820000Y-107010000D03*
%TO.P,U1,19,ADC6*%
%TO.N,unconnected-(U1-ADC6-Pad19)*%
X113820000Y-104470000D03*
%TO.P,U1,20,AREF*%
%TO.N,unconnected-(U1-AREF-Pad20)*%
X113820000Y-101930000D03*
%TO.P,U1,21,GND*%
%TO.N,GND*%
X113820000Y-99390000D03*
%TO.P,U1,22,ADC7*%
%TO.N,unconnected-(U1-ADC7-Pad22)*%
X113820000Y-96850000D03*
%TO.P,U1,23,PC0*%
%TO.N,Net-(U1-PC0)*%
X113820000Y-94310000D03*
%TO.P,U1,24,PC1*%
%TO.N,unconnected-(U1-PC1-Pad24)*%
X113820000Y-91770000D03*
%TO.P,U1,25,PC2*%
%TO.N,unconnected-(U1-PC2-Pad25)*%
X113820000Y-89230000D03*
%TO.P,U1,26,PC3*%
%TO.N,unconnected-(U1-PC3-Pad26)*%
X113820000Y-86690000D03*
%TO.P,U1,27,PC4*%
%TO.N,unconnected-(U1-PC4-Pad27)*%
X113820000Y-84150000D03*
%TO.P,U1,28,PC5*%
%TO.N,unconnected-(U1-PC5-Pad28)*%
X113820000Y-81610000D03*
%TO.P,U1,29,~{RESET}/PC6*%
%TO.N,unconnected-(U1-~{RESET}{slash}PC6-Pad29)*%
X113820000Y-79070000D03*
%TO.P,U1,30,PD0*%
%TO.N,unconnected-(U1-PD0-Pad30)*%
X113820000Y-76530000D03*
%TO.P,U1,31,PD1*%
%TO.N,unconnected-(U1-PD1-Pad31)*%
X113820000Y-73990000D03*
%TO.P,U1,32,PD2*%
%TO.N,Net-(U1-PD2)*%
X113820000Y-71450000D03*
%TD*%
D10*
%TO.P,R3,1*%
%TO.N,GND*%
X151990000Y-91950000D03*
D11*
%TO.P,R3,2*%
%TO.N,Net-(J1-Pin_1)*%
X157070000Y-91950000D03*
%TD*%
D10*
%TO.P,J2,1,Pin_1*%
%TO.N,+5V*%
X151990000Y-82900000D03*
D11*
%TO.P,J2,2,Pin_2*%
%TO.N,GND*%
X157070000Y-82900000D03*
%TD*%
D22*
%TO.P,D2,1,K*%
%TO.N,GND*%
X142000000Y-76225000D03*
D13*
%TO.P,D2,2,A*%
%TO.N,Net-(D2-A)*%
X142000000Y-78765000D03*
%TD*%
D16*
%TO.P,R4,1*%
%TO.N,Net-(D2-A)*%
X134530000Y-108400000D03*
D17*
%TO.P,R4,2*%
%TO.N,Net-(U1-PD3)*%
X142150000Y-108400000D03*
%TD*%
D16*
%TO.P,TH1,1*%
%TO.N,+5V*%
X134530000Y-112450000D03*
D17*
%TO.P,TH1,2*%
%TO.N,Net-(U1-PC0)*%
X142150000Y-112450000D03*
%TD*%
D23*
%TO.P,D1,1,K*%
%TO.N,Net-(D1-K)*%
X145600000Y-100400000D03*
D24*
%TO.P,D1,2,A*%
%TO.N,+5V*%
X155760000Y-100400000D03*
%TD*%
D16*
%TO.P,R1,1*%
%TO.N,Net-(U1-PC0)*%
X134530000Y-100300000D03*
D17*
%TO.P,R1,2*%
%TO.N,GND*%
X142150000Y-100300000D03*
%TD*%
D25*
%TO.N,+5V*%
X114717700Y-77975700D03*
%TO.N,Net-(D1-K)*%
X126164700Y-91884700D03*
%TO.N,Net-(D2-A)*%
X142447500Y-106607200D03*
%TO.N,Net-(F1-Pad1)*%
X131483800Y-66378500D03*
X132446600Y-100973000D03*
%TO.N,Net-(Q1-B)*%
X141593000Y-116014000D03*
%TO.N,Net-(U1-PD3)*%
X136091000Y-70338100D03*
%TD*%
D26*
%TO.N,+5V*%
X127380000Y-82900000D02*
X151990000Y-82900000D01*
X132790000Y-110710000D02*
X134530000Y-112450000D01*
X114922000Y-107124000D02*
X118508000Y-110710000D01*
X114321400Y-77900000D02*
X122380000Y-77900000D01*
X122380000Y-77900000D02*
X127380000Y-82900000D01*
X106200000Y-79070000D02*
X107302000Y-79070000D01*
X114321400Y-77900000D02*
X114397100Y-77975700D01*
X114397100Y-77975700D02*
X114717700Y-77975700D01*
X118508000Y-110710000D02*
X132790000Y-110710000D01*
X113820000Y-107010000D02*
X114922000Y-107010000D01*
X108472000Y-77900000D02*
X114321400Y-77900000D01*
X114922000Y-107010000D02*
X114922000Y-107124000D01*
X107302000Y-79070000D02*
X108472000Y-77900000D01*
%TO.N,Net-(D1-K)*%
X126164700Y-91884600D02*
X126164700Y-91884700D01*
X126164700Y-91884700D02*
X126164700Y-91884600D01*
X133277000Y-98996800D02*
X126164700Y-91884600D01*
X145600000Y-100400000D02*
X144198000Y-100400000D01*
X126164700Y-91884600D02*
X126164700Y-91884700D01*
X142795000Y-98996800D02*
X133277000Y-98996800D01*
X144198000Y-100400000D02*
X142795000Y-98996800D01*
%TO.N,Net-(D2-A)*%
X142447500Y-106607200D02*
X136322800Y-106607200D01*
X136322800Y-106607200D02*
X134530000Y-108400000D01*
%TO.N,GND*%
X109100000Y-114930000D02*
X126620000Y-114930000D01*
X151990000Y-90148300D02*
X157070000Y-85068300D01*
X142150000Y-100300000D02*
X141048000Y-100300000D01*
X154695000Y-76225000D02*
X142000000Y-76225000D01*
X138928000Y-102420000D02*
X117952000Y-102420000D01*
X114922000Y-99390000D02*
X113820000Y-99390000D01*
X126620000Y-114930000D02*
X129140000Y-112410000D01*
X157070000Y-73850000D02*
X154695000Y-76225000D01*
X117952000Y-102420000D02*
X114922000Y-99390000D01*
X141048000Y-100300000D02*
X138928000Y-102420000D01*
X151990000Y-91950000D02*
X151990000Y-90148300D01*
X157070000Y-85068300D02*
X157070000Y-82900000D01*
%TO.N,Net-(F1-Pad1)*%
X131483800Y-66378500D02*
X131060000Y-65954700D01*
X129821100Y-99008600D02*
X131785500Y-100973000D01*
X120931400Y-99008600D02*
X129821100Y-99008600D01*
X131060000Y-65954700D02*
X131060000Y-64185000D01*
X119220000Y-100720000D02*
X120931400Y-99008600D01*
X131785500Y-100973000D02*
X132446600Y-100973000D01*
%TO.N,Net-(J1-Pin_1)*%
X131060000Y-71685000D02*
X131060000Y-73236700D01*
X154250000Y-113700000D02*
X137470000Y-113700000D01*
X149575000Y-73236700D02*
X150188300Y-73850000D01*
X131060000Y-73236700D02*
X149575000Y-73236700D01*
X151990000Y-73850000D02*
X150188300Y-73850000D01*
X125500000Y-109010000D02*
X129140000Y-105370000D01*
X137470000Y-113700000D02*
X129140000Y-105370000D01*
X129140000Y-104120000D02*
X129140000Y-105370000D01*
X119220000Y-109010000D02*
X125500000Y-109010000D01*
%TO.N,Net-(Q1-B)*%
X106560000Y-114930000D02*
X106560000Y-115982000D01*
X106560000Y-115982000D02*
X141561000Y-115982000D01*
X141561000Y-115982000D02*
X141593000Y-116014000D01*
%TO.N,Net-(U1-PC0)*%
X131732000Y-100300000D02*
X134530000Y-100300000D01*
X113820000Y-94310000D02*
X125742000Y-94310000D01*
X125742000Y-94310000D02*
X131732000Y-100300000D01*
%TO.N,Net-(U1-PD3)*%
X135752900Y-70000000D02*
X136091000Y-70338100D01*
X107302000Y-71450000D02*
X108752000Y-70000000D01*
X108752000Y-70000000D02*
X135752900Y-70000000D01*
X106200000Y-71450000D02*
X107302000Y-71450000D01*
%TD*%
M02*
